<svg preserveAspectRatio="none" width="100%" height="100%" overflow="visible" style="display: block;" viewBox="0 0 35 31.5697" fill="none" xmlns="http://www.w3.org/2000/svg">
<path id="Icon" d="M24.209 30.0694L24.2095 24.7131C24.2098 21.7545 21.8114 19.3559 18.8527 19.3559H6.85736C3.89914 19.3559 1.50093 21.7538 1.5006 24.712L1.5 30.0694M33.4995 30.0697L33.5 24.7134C33.5003 21.7548 31.1019 19.3562 28.1432 19.3562M23.1772 2.55235C24.4927 3.52841 25.3453 5.09317 25.3453 6.85705C25.3453 8.62093 24.4927 10.1857 23.1772 11.1618M18.323 6.85676C18.323 9.81522 15.9247 12.2135 12.9662 12.2135C10.0078 12.2135 7.60948 9.81522 7.60948 6.85676C7.60948 3.8983 10.0078 1.5 12.9662 1.5C15.9247 1.5 18.323 3.8983 18.323 6.85676Z" stroke="var(--stroke-0, white)" stroke-width="3" stroke-linecap="round" stroke-linejoin="round"/>
</svg>
