<svg preserveAspectRatio="none" width="100%" height="100%" overflow="visible" style="display: block;" viewBox="0 0 24 24" fill="none" xmlns="http://www.w3.org/2000/svg">
<g id="bodycare-spa-hot-tub--Streamline-Nova">
<path id="Union" d="M21.1526 14.4889C22.4825 15.205 23.5002 16.2937 23.5002 17.7379C23.5001 18.6613 23.0416 19.441 22.4065 20.0475C21.7766 20.649 20.9186 21.1383 19.9426 21.525C17.9856 22.3004 15.349 22.7448 12.4817 22.7448C9.60823 22.7447 6.97178 22.2757 5.01685 21.4889C4.04217 21.0966 3.18759 20.6055 2.56079 20.0123C1.93294 19.4181 1.46421 18.6493 1.46411 17.7379C1.46411 16.27 2.52106 15.2813 3.76099 14.5182L4.80981 16.2213C3.68203 16.9153 3.46411 17.3846 3.46411 17.7379C3.46421 17.9193 3.55366 18.1975 3.93579 18.5592C4.31929 18.9222 4.92769 19.2972 5.76294 19.6334C7.42792 20.3036 9.80029 20.7447 12.4817 20.7448C15.1698 20.7448 17.5432 20.3246 19.2063 19.6656C20.0403 19.3352 20.6452 18.9645 21.0256 18.6012C21.4006 18.2431 21.5002 17.9527 21.5002 17.7379C21.5002 17.3606 21.2423 16.8095 20.2043 16.2506L20.679 15.3698L21.1526 14.4889ZM12.4827 10.7272C15.8464 10.7276 18.6731 13.4408 18.6731 16.9186H16.6731C16.6731 14.5682 14.7648 12.7276 12.4827 12.7272C10.132 12.7272 8.29126 14.6362 8.29126 16.9186H6.29126C6.29126 13.5545 9.00467 10.7272 12.4827 10.7272ZM22.0442 3.71252C20.9515 5.07858 20.8603 6.90024 21.6799 7.90198C22.4996 8.90374 23.1374 10.5428 20.0413 12.6373C21.1339 10.4518 20.4051 9.81371 19.1301 7.44592C17.9471 5.07893 21.5873 3.8042 22.0442 3.71252ZM4.64966 2.25549C3.55694 3.62156 3.46579 5.4432 4.2854 6.44495C5.10499 7.44676 5.74205 9.08575 2.64575 11.1803C3.73862 8.99456 3.01061 8.44785 1.7356 5.98889C0.552112 3.62141 4.19363 2.34682 4.64966 2.25549ZM12.4827 1.71057C14.7448 1.71095 16.5793 3.54508 16.5793 5.80725C16.5792 8.06935 14.7447 9.90355 12.4827 9.90393C10.2203 9.90393 8.38609 8.06958 8.38599 5.80725C8.38599 3.54485 10.2202 1.71057 12.4827 1.71057ZM12.4827 3.71057C11.3248 3.71057 10.386 4.64939 10.386 5.80725C10.3861 6.96501 11.3249 7.90393 12.4827 7.90393C13.6401 7.90355 14.5792 6.96478 14.5793 5.80725C14.5793 4.64963 13.6402 3.71095 12.4827 3.71057Z" fill="var(--fill-0, #149C9C)"/>
</g>
</svg>
