<svg preserveAspectRatio="none" width="100%" height="100%" overflow="visible" style="display: block;" viewBox="0 0 24 24.0005" fill="none" xmlns="http://www.w3.org/2000/svg">
<g id="desktop-flash--Streamline-Nova">
<path id="Union" d="M10 6.00023H2V18.0002H18V17.0002H20V19.0002C20 19.5525 19.5523 20.0002 19 20.0002H11V22.0002H14V24.0002H6V22.0002H9V20.0002H1C0.447715 20.0002 0 19.5525 0 19.0002V5.00023C0.000153559 4.44807 0.44781 4.00023 1 4.00023H10V6.00023ZM17.2109 0.385971C17.4732 0.0492741 17.9205 -0.0843522 18.3242 0.0539399C18.7282 0.192553 18.9999 0.57314 19 1.00023V5.00023H23C23.3818 5.00023 23.7306 5.21783 23.8984 5.56078C24.0662 5.90381 24.0234 6.31302 23.7891 6.61449L16.7891 15.6145C16.5268 15.9513 16.0796 16.0849 15.6758 15.9465C15.2717 15.8078 15 15.4274 15 15.0002V11.0002H11C10.6181 11.0002 10.2694 10.7828 10.1016 10.4397C9.93389 10.0966 9.97651 9.68738 10.2109 9.38597L17.2109 0.385971ZM13.0449 9.00023H16C16.5522 9.00023 16.9998 9.44807 17 10.0002V12.0852L20.9551 7.00023H18C17.4477 7.00023 17 6.55251 17 6.00023V3.91429L13.0449 9.00023Z" fill="var(--fill-0, #149C9C)"/>
</g>
</svg>
