<svg preserveAspectRatio="none" width="100%" height="100%" overflow="visible" style="display: block;" viewBox="0 0 24 24" fill="none" xmlns="http://www.w3.org/2000/svg">
<g id="furniture-chair-modern-rotatable--Streamline-Nova">
<path id="Union" d="M12.0001 0C14.3659 0.000127535 16.459 1.23167 18.1241 3.00098C19.792 4.77329 21.1078 7.1586 21.9493 9.68359C23.0073 12.8574 22.8096 15.5781 20.9073 17.4609C19.2517 19.0995 16.5156 19.8631 13.0001 19.9814V22H17.0001V24H7.00012V22H11.0001V19.9805C7.4847 19.8621 4.74963 19.0994 3.09387 17.4609C1.19135 15.578 0.993867 12.8576 2.05188 9.68359C4.01542 3.79419 7.32822 0.000157464 12.0001 0ZM12.0001 2C8.6724 2.00016 5.83372 4.66432 3.94934 10.3164C3.00739 13.1423 3.37239 14.922 4.5011 16.0391C5.72283 17.2479 8.12358 18 12.0001 18C15.8769 18 18.2785 17.2481 19.5001 16.0391C20.6286 14.922 20.9937 13.1419 20.0519 10.3164C19.2815 8.00469 18.097 5.88945 16.6681 4.37109C15.2364 2.84985 13.6341 2.00013 12.0001 2ZM12.0001 13C13.964 13 15.3184 13.2622 16.2111 13.5479C16.6571 13.6906 16.9866 13.8381 17.2169 13.9609C17.3319 14.0223 17.4221 14.0777 17.4894 14.1221C17.5229 14.1441 17.5509 14.1634 17.5734 14.1797C17.5845 14.1878 17.5942 14.1957 17.6027 14.2021C17.6069 14.2054 17.6118 14.2081 17.6154 14.2109L17.6222 14.2178H17.6241L16.3761 15.7822H16.3781L16.38 15.7842C16.3813 15.7852 16.3828 15.7862 16.3839 15.7871C16.3862 15.7889 16.3881 15.7907 16.3898 15.792C16.3932 15.7947 16.3954 15.797 16.3966 15.7979C16.3953 15.797 16.3928 15.7946 16.3888 15.792C16.3731 15.7816 16.3359 15.7588 16.2755 15.7266C16.1543 15.6619 15.9367 15.5593 15.6017 15.4521C14.9319 15.2378 13.7861 15 12.0001 15C10.2141 15 9.06837 15.2378 8.39856 15.4521C8.06361 15.5593 7.84595 15.6619 7.72473 15.7266C7.66438 15.7588 7.62724 15.7816 7.61145 15.792C7.60752 15.7946 7.60496 15.7969 7.60364 15.7979C7.60486 15.7969 7.60703 15.7946 7.61047 15.792C7.61219 15.7907 7.61409 15.7889 7.61633 15.7871C7.61747 15.7862 7.61899 15.7852 7.62024 15.7842L7.62219 15.7822H7.62415L6.3761 14.2178H6.37805L6.38489 14.2109C6.38851 14.2081 6.39333 14.2054 6.39758 14.2021C6.40608 14.1957 6.41577 14.1878 6.42688 14.1797C6.44932 14.1634 6.47739 14.1441 6.51087 14.1221C6.57819 14.0777 6.6683 14.0223 6.78333 13.9609C7.01368 13.8381 7.3431 13.6906 7.78919 13.5479C8.68189 13.2622 10.0363 13 12.0001 13Z" fill="var(--fill-0, #149C9C)"/>
</g>
</svg>
