<svg preserveAspectRatio="none" width="100%" height="100%" overflow="visible" style="display: block;" viewBox="0 0 24 24.001" fill="none" xmlns="http://www.w3.org/2000/svg">
<g id="office-glue--Streamline-Nova">
<path id="Union" d="M15.075 24.001H1.075V22.001H15.075V24.001ZM15.6814 0C16.7423 0 17.7604 0.42173 18.5105 1.17188L22.7527 5.41406C23.5028 6.1641 23.9235 7.18148 23.9236 8.24219C23.9236 9.30305 23.5029 10.3211 22.7527 11.0713L17.0955 16.7275C16.705 17.1181 16.072 17.1181 15.6814 16.7275L14.2674 15.3135L12.1463 17.4355C11.9588 17.623 11.7044 17.7284 11.4393 17.7285C11.1742 17.7285 10.9197 17.6229 10.7322 17.4355L9.9168 16.6201L5.65606 19.6631C5.25831 19.9471 4.7136 19.9022 4.36797 19.5566C4.02241 19.211 3.97752 18.6663 4.26152 18.2686L7.30449 14.0068L6.49004 13.1924C6.09973 12.8019 6.09965 12.1688 6.49004 11.7783L8.61113 9.65723L7.19609 8.24219C6.80593 7.85163 6.80569 7.21853 7.19609 6.82812L12.8533 1.17188C13.6034 0.421778 14.6207 5.38635e-05 15.6814 0ZM8.61016 12.4854L9.31035 13.1846C9.31298 13.1871 9.31556 13.1898 9.31816 13.1924L10.0242 13.8994L11.4393 15.3135L12.8533 13.8994L10.0242 11.0703L8.61016 12.4854ZM15.6814 2C15.1511 2.00005 14.6424 2.21091 14.2674 2.58594L9.31816 7.53516L16.3885 14.6064L21.3387 9.65723L21.4715 9.51074C21.7632 9.1548 21.9236 8.70644 21.9236 8.24219C21.9235 7.71192 21.7136 7.20309 21.3387 6.82812L17.0955 2.58594C16.7204 2.21093 16.2118 2 15.6814 2Z" fill="var(--fill-0, #149C9C)"/>
</g>
</svg>
