<svg preserveAspectRatio="none" width="100%" height="100%" overflow="visible" style="display: block;" viewBox="0 0 24 24" fill="none" xmlns="http://www.w3.org/2000/svg">
<g id="food-bread--Streamline-Nova">
<path id="Union" d="M17.305 1.50684C18.8193 1.57377 20.2746 2.13101 21.4485 3.09863C22.7007 4.13089 23.5556 5.56644 23.8665 7.15918C24.1773 8.75194 23.9248 10.4037 23.1527 11.8311C22.5018 13.0339 21.5144 14.0126 20.3206 14.6572L20.9954 21.4004C21.0235 21.6814 20.931 21.9614 20.7415 22.1709C20.552 22.3803 20.2827 22.4999 20.0003 22.5H4.00031C3.71778 22.5 3.4477 22.3804 3.25812 22.1709C3.06871 21.9615 2.9771 21.6814 3.00519 21.4004L3.67902 14.6582C2.48507 14.0135 1.49783 13.0341 0.846987 11.8311C0.0747793 10.4036 -0.176773 8.75202 0.134096 7.15918C0.445011 5.56629 1.29972 4.13091 2.55207 3.09863C3.80441 2.06637 5.3764 1.50114 6.99933 1.5H17.0013L17.305 1.50684ZM7.00031 3.5C5.8412 3.50091 4.71798 3.90435 3.82355 4.6416C2.92916 5.37889 2.31908 6.40436 2.09699 7.54199C1.87491 8.67975 2.05518 9.85931 2.60675 10.8789C3.15832 11.8985 4.04665 12.6951 5.12042 13.1318C5.5311 13.2988 5.7826 13.7161 5.73859 14.1572L5.1048 20.5H12.8948L12.261 14.1572C12.217 13.7158 12.4691 13.2986 12.8802 13.1318C13.8019 12.7578 14.591 12.117 15.1468 11.292C15.7025 10.467 16 9.49472 16.0003 8.5L15.9935 8.25195C15.9321 7.01626 15.4144 5.84387 14.5355 4.96484C13.5979 4.02723 12.3263 3.50008 11.0003 3.5H7.00031ZM14.4046 15.5L14.9056 20.5H18.8948L18.3948 15.5H14.4046ZM15.9495 3.5498C17.2623 4.86256 18.0003 6.64348 18.0003 8.5L17.9954 8.76074C17.9466 10.0621 17.5355 11.3262 16.806 12.4092C16.5388 12.8058 16.2306 13.1692 15.8919 13.5H18.43C18.5383 13.3398 18.6908 13.2085 18.8792 13.1318C19.9529 12.6951 20.8423 11.8984 21.3939 10.8789C21.9453 9.85939 22.1257 8.67964 21.9036 7.54199C21.6815 6.40433 21.0705 5.37891 20.1761 4.6416C19.3375 3.95045 18.2979 3.55258 17.2161 3.50488L16.9993 3.5H15.8968C15.9141 3.51691 15.9324 3.5327 15.9495 3.5498Z" fill="var(--fill-0, #149C9C)"/>
</g>
</svg>
