<svg preserveAspectRatio="none" width="100%" height="100%" overflow="visible" style="display: block;" viewBox="0 0 24 24.0003" fill="none" xmlns="http://www.w3.org/2000/svg">
<g id="notebook-pencil--Streamline-Nova">
<path id="Union" d="M17 0C17.5523 0 18 0.447715 18 1V9H16V2H6V22H8V24H1C0.447715 24 0 23.5523 0 23V1C0 0.447715 0.447715 0 1 0H17ZM20.1719 9.97949C20.437 9.97959 20.6914 10.0849 20.8789 10.2725L23.707 13.1016C24.0972 13.4921 24.0973 14.1252 23.707 14.5156L15.4131 22.8096C15.283 22.9395 15.1183 23.0311 14.9395 23.0742L11.2129 23.9727C10.8745 24.054 10.5176 23.9532 10.2715 23.707C10.0255 23.4609 9.92544 23.1039 10.0068 22.7656L10.9053 19.0391L10.9463 18.9082C10.9963 18.7808 11.0726 18.664 11.1699 18.5664L19.4648 10.2725L19.5381 10.2061C19.7159 10.0604 19.94 9.97958 20.1719 9.97949ZM2 22H4V2H2V22ZM12.7832 19.7812L12.333 21.6445L14.1973 21.1953L18.7568 16.6348L17.3428 15.2207L12.7832 19.7812ZM18.7568 13.8066L20.1709 15.2207L21.585 13.8076L20.1709 12.3936L18.7568 13.8066ZM14 5V8H8V5H14Z" fill="var(--fill-0, #149C9C)"/>
</g>
</svg>
