<svg preserveAspectRatio="none" width="100%" height="100%" overflow="visible" style="display: block;" viewBox="0 0 24 24" fill="none" xmlns="http://www.w3.org/2000/svg">
<g id="movies-projector--Streamline-Nova">
<path id="Union" d="M17 11.5C17.5523 11.5 18 11.9477 18 12.5V13.9346L21.7324 12.8975C22.0335 12.8139 22.3567 12.8764 22.6055 13.0654C22.8539 13.2545 23 13.5491 23 13.8613V20.8066C22.9998 21.1188 22.8539 21.4136 22.6055 21.6025C22.3567 21.7915 22.0334 21.8531 21.7324 21.7695L18 20.7324V22.5C18 23.0523 17.5523 23.5 17 23.5H4C3.44772 23.5 3 23.0523 3 22.5V12.5C3 11.9477 3.44772 11.5 4 11.5H17ZM5 21.5H16V13.5H5V21.5ZM18 16.0098V18.6572L21 19.4902V15.1768L18 16.0098ZM5.5 0.5C7.98528 0.5 10 2.51472 10 5C10 7.48528 7.98528 9.5 5.5 9.5C3.01472 9.5 1 7.48528 1 5C1 2.51472 3.01472 0.5 5.5 0.5ZM15.5 0.5C17.9853 0.5 20 2.51472 20 5C20 7.48528 17.9853 9.5 15.5 9.5C13.0147 9.5 11 7.48528 11 5C11 2.51472 13.0147 0.5 15.5 0.5ZM5.5 2.5C4.11929 2.5 3 3.61929 3 5C3 6.38071 4.11929 7.5 5.5 7.5C6.88071 7.5 8 6.38071 8 5C8 3.61929 6.88071 2.5 5.5 2.5ZM15.5 2.5C14.1193 2.5 13 3.61929 13 5C13 6.38071 14.1193 7.5 15.5 7.5C16.8807 7.5 18 6.38071 18 5C18 3.61929 16.8807 2.5 15.5 2.5Z" fill="var(--fill-0, #149C9C)"/>
</g>
</svg>
