<svg preserveAspectRatio="none" width="100%" height="100%" overflow="visible" style="display: block;" viewBox="0 0 35.1249 39" fill="none" xmlns="http://www.w3.org/2000/svg">
<path id="Icon" d="M10.0257 33.3077C9.23974 33.5697 8.815 34.4192 9.07697 35.2051C9.33895 35.991 10.1884 36.4158 10.9743 36.1538L10.5 34.7308L10.0257 33.3077ZM20.8846 35.4231L20.7485 33.9293V33.9293L20.8846 35.4231ZM27.1154 34.0385L27.7732 35.3865V35.3865L27.1154 34.0385ZM33.069 28.6225L31.9034 27.6784V27.6784L33.069 28.6225ZM28.9971 25.2337L30.0577 26.2944V26.2944L28.9971 25.2337ZM26.2551 27.9757L27.3158 29.0363V29.0363L26.2551 27.9757ZM18.8077 27.6923C17.9793 27.6923 17.3077 28.3639 17.3077 29.1923C17.3077 30.0207 17.9793 30.6923 18.8077 30.6923V29.1923V27.6923ZM32.4359 24.8932L31.6039 26.1413V26.1413L32.4359 24.8932ZM12.6074 23.9848L13.2782 25.3264V25.3264L12.6074 23.9848ZM20.0599 23.3031L20.4546 21.8559V21.8559L20.0599 23.3031ZM22.9703 24.0968L22.5756 25.5439V25.5439L22.9703 24.0968ZM23.8924 27.5691L22.8317 26.5085H22.8317L23.8924 27.5691ZM21.2086 28.1316C20.6228 28.7174 20.6228 29.6672 21.2086 30.253C21.7944 30.8388 22.7441 30.8388 23.3299 30.253L22.2692 29.1923L21.2086 28.1316ZM10.5 34.7308L10.9743 36.1538C11.2014 36.0781 11.6476 36.0334 12.4053 36.0874C13.1323 36.1393 13.9791 36.2664 14.9403 36.4174C16.7745 36.7055 19.0628 37.0953 21.0207 36.9169L20.8846 35.4231L20.7485 33.9293C19.2449 34.0662 17.3793 33.7637 15.4058 33.4537C14.4632 33.3057 13.4927 33.1573 12.6187 33.095C11.7754 33.0349 10.8371 33.0373 10.0257 33.3077L10.5 34.7308ZM20.8846 35.4231L21.0207 36.9169C22.3039 36.8 23.376 36.7459 24.3676 36.5664C25.4351 36.3732 26.4383 36.038 27.7732 35.3865L27.1154 34.0385L26.4575 32.6904C25.3146 33.2481 24.5753 33.4801 23.8333 33.6144C23.0154 33.7624 22.2111 33.796 20.7485 33.9293L20.8846 35.4231ZM27.1154 34.0385L27.7732 35.3865C29.0563 34.7604 30.301 33.7466 31.3777 32.712C32.469 31.6635 33.4611 30.5217 34.2347 29.5666L33.069 28.6225L31.9034 27.6784C31.1767 28.5757 30.2705 29.6155 29.2992 30.5488C28.3135 31.4959 27.3314 32.2639 26.4575 32.6904L27.1154 34.0385ZM28.9971 25.2337L27.9364 24.1731L25.1944 26.915L26.2551 27.9757L27.3158 29.0363L30.0577 26.2944L28.9971 25.2337ZM23.3179 29.1923V27.6923H18.8077V29.1923V30.6923H23.3179V29.1923ZM26.2551 27.9757L25.1944 26.915C24.6967 27.4127 24.0217 27.6923 23.3179 27.6923V29.1923V30.6923C24.8174 30.6923 26.2555 30.0966 27.3158 29.0363L26.2551 27.9757ZM32.4359 24.8932L33.268 23.6451C31.5921 22.5279 29.3606 22.7488 27.9364 24.1731L28.9971 25.2337L30.0577 26.2944C30.4707 25.8813 31.1179 25.8173 31.6039 26.1413L32.4359 24.8932ZM33.069 28.6225L34.2347 29.5666C35.7893 27.6471 35.2073 24.938 33.268 23.6451L32.4359 24.8932L31.6039 26.1413C32.1905 26.5323 32.2594 27.2389 31.9034 27.6784L33.069 28.6225ZM2.88462 22.2692V23.7692H8.42308V22.2692V20.7692H2.88462V22.2692ZM9.80769 23.6538H8.30769V36.1154H9.80769H11.3077V23.6538H9.80769ZM8.42308 37.5V36H2.88462V37.5V39H8.42308V37.5ZM1.5 36.1154H3V23.6538H1.5H0V36.1154H1.5ZM2.88462 37.5V36C2.94834 36 3 36.0517 3 36.1154H1.5H0C0 37.7085 1.29149 39 2.88462 39V37.5ZM9.80769 36.1154H8.30769C8.30769 36.0517 8.35936 36 8.42308 36V37.5V39C10.0162 39 11.3077 37.7085 11.3077 36.1154H9.80769ZM8.42308 22.2692V23.7692C8.35935 23.7692 8.30769 23.7176 8.30769 23.6538H9.80769H11.3077C11.3077 22.0607 10.0162 20.7692 8.42308 20.7692V22.2692ZM2.88462 22.2692V20.7692C1.29149 20.7692 0 22.0607 0 23.6538H1.5H3C3 23.7176 2.94834 23.7692 2.88462 23.7692V22.2692ZM10.5 25.0385L11.1708 26.3801L13.2782 25.3264L12.6074 23.9848L11.9365 22.6431L9.82918 23.6968L10.5 25.0385ZM16.9419 22.9615V24.4615H17.5097V22.9615V21.4615H16.9419V22.9615ZM20.0599 23.3031L19.6653 24.7502L22.5756 25.5439L22.9703 24.0968L23.365 22.6496L20.4546 21.8559L20.0599 23.3031ZM23.8924 27.5691L22.8317 26.5085L21.2086 28.1316L22.2692 29.1923L23.3299 30.253L24.9531 28.6298L23.8924 27.5691ZM22.9703 24.0968L22.5756 25.5439C23.003 25.6605 23.145 26.1952 22.8317 26.5085L23.8924 27.5691L24.9531 28.6298C26.8951 26.6878 26.0146 23.3723 23.365 22.6496L22.9703 24.0968ZM17.5097 22.9615V24.4615C18.2379 24.4615 18.9628 24.5586 19.6653 24.7502L20.0599 23.3031L20.4546 21.8559C19.4949 21.5942 18.5045 21.4615 17.5097 21.4615V22.9615ZM12.6074 23.9848L13.2782 25.3264C14.4157 24.7576 15.6701 24.4615 16.9419 24.4615V22.9615V21.4615C15.2043 21.4615 13.4907 21.8661 11.9365 22.6431L12.6074 23.9848ZM27.8077 12.5769H26.3077C26.3077 14.8073 24.4996 16.6154 22.2692 16.6154V18.1154V19.6154C26.1565 19.6154 29.3077 16.4642 29.3077 12.5769H27.8077ZM22.2692 18.1154V16.6154C20.0389 16.6154 18.2308 14.8073 18.2308 12.5769H16.7308H15.2308C15.2308 16.4642 18.382 19.6154 22.2692 19.6154V18.1154ZM16.7308 12.5769H18.2308C18.2308 10.3465 20.0389 8.53846 22.2692 8.53846V7.03846V5.53846C18.382 5.53846 15.2308 8.68969 15.2308 12.5769H16.7308ZM22.2692 7.03846V8.53846C24.4996 8.53846 26.3077 10.3465 26.3077 12.5769H27.8077H29.3077C29.3077 8.68969 26.1565 5.53846 22.2692 5.53846V7.03846ZM16.7308 12.5769V11.0769C14.5004 11.0769 12.6923 9.26884 12.6923 7.03846H11.1923H9.69231C9.69231 10.9257 12.8435 14.0769 16.7308 14.0769V12.5769ZM11.1923 7.03846H12.6923C12.6923 4.80808 14.5004 3 16.7308 3V1.5V0C12.8435 0 9.69231 3.15123 9.69231 7.03846H11.1923ZM16.7308 1.5V3C18.9612 3 20.7692 4.80808 20.7692 7.03846H22.2692H23.7692C23.7692 3.15123 20.618 0 16.7308 0V1.5Z" fill="var(--stroke-0, white)"/>
</svg>
