<svg preserveAspectRatio="none" width="100%" height="100%" overflow="visible" style="display: block;" viewBox="0 0 24 24" fill="none" xmlns="http://www.w3.org/2000/svg">
<g id="page-coding--Streamline-Nova">
<path id="Union" d="M23 1C23.5523 1 24 1.44772 24 2V22C24 22.5523 23.5523 23 23 23H1C0.447715 23 0 22.5523 0 22V2C0 1.44772 0.447715 1 1 1H23ZM2 21H22V9H2V21ZM10.707 14.293C11.0976 14.6835 11.0976 15.3165 10.707 15.707L7.70703 18.707L6.29297 17.293L8.58594 15L6.29297 12.707L7.70703 11.293L10.707 14.293ZM18 18H12V16H18V18ZM2 7H22V3H2V7ZM5 4C5.55228 4 6 4.44772 6 5C6 5.55228 5.55228 6 5 6C4.44772 6 4 5.55228 4 5C4 4.44772 4.44772 4 5 4ZM9 4C9.55228 4 10 4.44772 10 5C10 5.55228 9.55228 6 9 6C8.44772 6 8 5.55228 8 5C8 4.44772 8.44772 4 9 4Z" fill="var(--fill-0, #149C9C)"/>
</g>
</svg>
