<svg preserveAspectRatio="none" width="100%" height="100%" overflow="visible" style="display: block;" viewBox="0 0 24 24" fill="none" xmlns="http://www.w3.org/2000/svg">
<g id="tool-screwdriver-wrench--Streamline-Nova">
<path id="Union" d="M23.0394 2.70288L20.596 6.77319L19.6751 5.85229L10.1741 15.3533L10.7962 15.9753C11.1865 16.3658 11.1865 16.9989 10.7962 17.3894L5.16241 23.0232C4.77192 23.4135 4.13881 23.4135 3.74835 23.0232L1.09014 20.365C0.699622 19.9745 0.699627 19.3405 1.09014 18.95L6.72296 13.3171C7.11348 12.9266 7.74747 12.9266 8.13799 13.3171L8.76006 13.9392L18.261 4.43823L17.3401 3.51733L21.4105 1.07397L23.0394 2.70288ZM16.1985 11.5994C16.8833 11.4905 17.5863 11.5056 18.2728 11.6511C19.4407 11.8988 20.5014 12.5075 21.304 13.3914C22.1066 14.2753 22.6113 15.3895 22.7454 16.5759C22.8795 17.7622 22.6369 18.961 22.0521 20.0017C21.8987 20.2743 21.6256 20.4601 21.3157 20.5027C21.006 20.545 20.694 20.4396 20.473 20.2185L17.9817 17.7273L17.5823 18.1277L20.0735 20.6189C20.2945 20.8401 20.3993 21.1519 20.3567 21.4617C20.314 21.7715 20.1285 22.0448 19.8558 22.198C18.815 22.7825 17.6161 23.0247 16.43 22.8904C15.2437 22.756 14.1292 22.2516 13.2454 21.449C12.3618 20.6463 11.7528 19.5855 11.5052 18.4177C11.3599 17.7321 11.3438 17.0295 11.4524 16.3455L13.3235 14.4734L13.4886 14.6384C13.7802 14.9304 13.8623 15.3713 13.6956 15.7488C13.3832 16.4568 13.3018 17.2456 13.4622 18.0027C13.6228 18.7598 14.0172 19.4481 14.5901 19.9685C15.163 20.4888 15.8856 20.8159 16.6546 20.9031C16.9449 20.936 17.2371 20.9337 17.5237 20.8982L15.4612 18.8357C15.071 18.4454 15.0714 17.8122 15.4612 17.4216L17.2747 15.6062C17.4622 15.4186 17.7175 15.3133 17.9827 15.3132C18.2479 15.3133 18.5023 15.4187 18.6898 15.6062L20.7523 17.6697C20.7879 17.3829 20.7909 17.091 20.7581 16.8005C20.6711 16.0314 20.3438 15.3092 19.8235 14.7361C19.3032 14.163 18.6158 13.7679 17.8587 13.6072C17.1015 13.4466 16.312 13.5281 15.6038 13.8406C15.2263 14.007 14.7852 13.9243 14.4935 13.6326L14.3294 13.4685L16.1985 11.5994ZM3.21124 19.658L4.45538 20.9021L8.6751 16.6824L7.43096 15.4382L3.21124 19.658ZM3.88702 1.83569C4.92776 1.25073 6.12648 1.00833 7.3128 1.14233C8.49942 1.27648 9.61429 1.78093 10.4983 2.58374C11.3822 3.38648 11.991 4.44696 12.2386 5.61499C12.4251 6.49526 12.3949 7.40212 12.1644 8.26343L10.6439 9.78394L10.2552 9.39526C9.96351 9.1034 9.88163 8.66146 10.0482 8.28394C10.3607 7.57594 10.4428 6.78716 10.2825 6.03003C10.122 5.27263 9.72674 4.58473 9.15362 4.06421C8.58041 3.54367 7.85758 3.21662 7.08819 3.12964C6.79737 3.0968 6.50518 3.09874 6.21807 3.13452L8.28253 5.19897C8.46999 5.38647 8.57545 5.64087 8.57549 5.90601C8.57536 6.17096 8.46982 6.42564 8.28253 6.61304L6.4671 8.42749C6.07668 8.81711 5.44434 8.81726 5.05401 8.42749L2.98858 6.36401C2.95299 6.65078 2.95084 6.94271 2.9837 7.23315C3.07086 8.00227 3.39786 8.72559 3.91827 9.29858C4.43866 9.87145 5.12697 10.266 5.88409 10.4265C6.64114 10.5869 7.43001 10.5046 8.13799 10.1921L8.23467 10.156C8.33348 10.1241 8.43708 10.1072 8.54131 10.1072H8.54327C8.80837 10.1072 9.06279 10.2128 9.2503 10.4001L9.63897 10.7888L8.11944 12.3083C7.25757 12.5394 6.34995 12.5702 5.46905 12.3835C4.30128 12.136 3.24043 11.5269 2.4378 10.6433C1.63518 9.75959 1.13081 8.64494 0.996393 7.45874C0.862083 6.27266 1.10433 5.07373 1.68878 4.03296L1.75225 3.93433C1.91109 3.71587 2.15332 3.56951 2.42413 3.53198C2.73409 3.48927 3.04656 3.59401 3.26788 3.81519L5.76006 6.30542L6.16046 5.90503L3.66924 3.41479C3.44822 3.19364 3.34358 2.88081 3.38604 2.57104C3.42875 2.26137 3.61459 1.989 3.88702 1.83569Z" fill="var(--fill-0, #149C9C)"/>
</g>
</svg>
