<svg preserveAspectRatio="none" width="100%" height="100%" overflow="visible" style="display: block;" viewBox="0 0 24 24" fill="none" xmlns="http://www.w3.org/2000/svg">
<g id="vehicle-checked-1--Streamline-Nova">
<path id="Union" d="M8.5 10C8.8 10.7 9.1 11.4 9.5 12H4.59961L2.59961 16H17.4004C18.1003 15.9999 18.8005 15.8002 19.4004 15.7002L20 16.7998V22H18C18 23.1 17.1 24 16 24C14.9 24 14 23.1 14 22H6C6 23.1 5.1 24 4 24C2.9 24 2 23.1 2 22H0V16.7998L3.40039 10H8.5ZM2 20H5V18H2V20ZM7 20H13V18H7V20ZM15 20H18V18H15V20ZM17 0C20.9 0 24 3.1 24 7C24 10.9 20.9 14 17 14C13.1 14 10 10.9 10 7C10 3.1 13.1 0 17 0ZM17 2C14.2 2 12 4.2 12 7C12 9.8 14.2 12 17 12C19.8 12 22 9.8 22 7C22 4.2 19.8 2 17 2ZM20.2998 5.7998L16 9.40039L13.9004 7.2002L15.2998 5.7998L16.2002 6.59961L18.9004 4.2002L20.2998 5.7998Z" fill="var(--fill-0, #149C9C)"/>
</g>
</svg>
